# xmcd
#
# Track frame offsets: 
#        150
#        15057
#        29049
#        43258
#        65624
#        75102
#        84960
#        95806
#        108752
#        119676
#        129403
#        141591
#
# Disc length: 2136 seconds
#
# Revision: 9
# Processed by: cddbd v1.5.2PL0 Copyright (c) Steve Scherf et al.
# Submitted via: ExactAudioCopyFreeDBPlugin 1.0
#
DISCID=9a08560c
DTITLE=Merle Haggard - If I Could Only Fly
DYEAR=2000
DGENRE=Country
TTITLE0=Wishing All These Old Things Were New
TTITLE1=Honky Tonky Mama
TTITLE2=Turn To Me
TTITLE3=If I Could Only Fly
TTITLE4=Crazy Moon
TTITLE5=Bareback
TTITLE6=(Think About a) Lullaby
TTITLE7=I'm Still Your Daddy
TTITLE8=Proud To Be Your Man
TTITLE9=Leavin's Getting Harder
TTITLE10=Thanks To Uncle John
TTITLE11=Listening (To The Wind)
EXTD=YEAR: 2000
EXTT0=
EXTT1=
EXTT2=
EXTT3=
EXTT4=
EXTT5=
EXTT6=
EXTT7=
EXTT8=
EXTT9=
EXTT10=
EXTT11=
PLAYORDER=
